<?xml version="1.0" encoding="UTF-8"?>
<svg width="72px" height="72px" viewBox="0 0 72 72" version="1.1" xmlns="http://www.w3.org/2000/svg" xmlns:xlink="http://www.w3.org/1999/xlink">
    <!-- Generator: Sketch 44.1 (41455) - http://www.bohemiancoding.com/sketch -->
    <title>Rectangle 6 Copy 2</title>
    <desc>Created with Sketch.</desc>
    <defs></defs>
    <g id="Page-1" stroke="none" stroke-width="1" fill="none" fill-rule="evenodd">
        <g id="Desktop" transform="translate(-693.000000, -437.000000)" fill="#333333">
            <g id="Group-Copy-2" transform="translate(693.000000, 437.000000)">
                <g id="微信">
                    <path d="M27,14 C15.5293596,14 6,21.5947266 6,31 C6,36.5756836 9.6015625,41.7236328 14.0781249,44.7808437 C14.550997,45.1037857 14.3431813,46.7811008 13.4546777,49.8127889 C16.9418476,47.8921341 19.0726525,47.0393312 19.8470924,47.2543799 C21.1041083,47.6034319 23.9499005,48 25,48 C25.2454989,48 25.9986862,48.3113279 25.9986862,48.9950319 C25.9986862,49.6787359 25.2720308,50 25,50 C23.2450636,50 20.493642,49.3266172 19.9638062,49.0944515 C17.9990919,50.0789904 16.0558059,51.0366268 14.0781249,51.8616844 C12.6626052,52.4522171 11.0372824,51.0225549 11.3051578,49.6787359 C11.6350922,48.0235925 11.9386612,46.6345765 12.1107927,45.4820569 C7.14834585,41.9969572 4,36.8022042 4,31 C4,20.5065898 14.2974508,12 27,12 C37.2622273,12 45.9154855,17.6043256 48.8766006,25.2706874 C48.9597834,25.5412161 49.2730763,26.716464 48.443333,26.9227843 C47.9891125,27.0357287 47.4436663,26.7939777 47.2193898,26.0062866 C44.4979248,20.2838936 38.3730469,14 27,14 Z" id="Combined-Shape"></path>
                    <path d="M49,62 C38.5065898,62 30,54.836556 30,46 C30,37.163444 38.5065898,30 49,30 C59.4934102,30 68,37.163444 68,46 C68,50.743194 65.5490683,55.0043285 61.655519,57.9342968 C61.655519,57.9605137 61.754623,58.5375078 61.9528309,59.6652791 C62.0030908,59.95125 61.990482,60.2447352 61.9158806,60.5253418 C61.6320807,61.5928302 60.5366452,62.2281352 59.4691568,61.9443354 C57.8996845,61.5270793 56.787995,61.1569226 56.1340885,60.8338655 C53.931349,61.5858475 51.5231082,62 49,62 Z M49,60 C51.6505838,60 54.1904182,59.4749236 56.4617226,58.5414744 C56.8485914,58.3824811 57.9073214,58.7570826 59.6379126,59.6652791 C59.3198401,58.004811 59.3198401,57.0684026 59.6379126,56.8560539 C63.4844701,54.2880497 66,50.3773228 66,46 C66,38.2730386 58.0274237,32 49,32 C39.9725763,32 32,38.3303216 32,46 C32,53.6696784 39.8384431,60 49,60 Z" id="Combined-Shape"></path>
                    <path d="M20.998933,27 C19.894444,27 19,26.1036927 19,25.0001574 C19,23.8945752 19.894444,23 20.998933,23 C22.1043366,23 23,23.8947327 23,25.0001574 C23,26.1035351 22.1043366,27 20.998933,27 Z" id="Path"></path>
                    <path d="M34.998933,27 C33.894444,27 33,26.1036927 33,25.0001574 C33,23.8945752 33.894444,23 34.998933,23 C36.1043366,23 37,23.8947327 37,25.0001574 C37,26.1035351 36.1043366,27 34.998933,27 Z" id="Path"></path>
                    <path d="M39,41.9979491 C39,40.8945651 39.8954848,40 40.999549,40 C42.1048762,40 43,40.8945651 43,41.9979491 C43,43.1043162 42.1048762,44 40.999549,44 C39.8954846,44 39,43.1041297 39,41.9979491 Z" id="Path"></path>
                    <path d="M51,41.9979491 C51,40.8945651 51.8954848,40 52.999549,40 C54.1048762,40 55,40.8945651 55,41.9979491 C55,43.1043162 54.1048762,44 52.999549,44 C51.8954846,44 51,43.1041297 51,41.9979491 Z" id="Path"></path>
                </g>
            </g>
        </g>
    </g>
</svg>