<?xml version="1.0" encoding="UTF-8"?>
<svg width="72px" height="72px" viewBox="0 0 72 72" version="1.1" xmlns="http://www.w3.org/2000/svg" xmlns:xlink="http://www.w3.org/1999/xlink">
    <!-- Generator: Sketch 44.1 (41455) - http://www.bohemiancoding.com/sketch -->
    <title>Rectangle 6 Copy 3</title>
    <desc>Created with Sketch.</desc>
    <defs></defs>
    <g id="Page-1" stroke="none" stroke-width="1" fill="none" fill-rule="evenodd">
        <g id="Desktop" transform="translate(-765.000000, -437.000000)" fill="#333333">
            <g id="Group-Copy-3" transform="translate(764.000000, 434.000000)">
                <path d="M44.9940337,27 C43.8894642,27 42.9940337,26.1045695 42.9940337,25 L42.9940337,13 C42.9940337,11.21843 45.1478224,10.3259879 46.4078957,11.585435 L57.8277241,22.9995883 C58.5782997,23.7497909 59,24.7675079 59,25.8287183 L59,65 C59,65.9868473 58.0211523,67 57,67 L17,67 C16.0112892,67 15,65.9626863 15,65 L15,13 C15,11.8954305 15.8954305,11 17,11 L36,11 C36.6666667,10.9401565 37,11.2784245 37,12.0148042 C37,12.7511839 36.6666667,13.0795825 36,13 L17,13 L17,65 L57,65 L57,27 L44.9940337,27 Z M44.9940337,12.8267305 L44.9940337,25 L57.1698753,25 L44.9940337,12.8267305 Z" id="Rectangle-8" fill-rule="nonzero"></path>
                <path d="M26,31 L38,31 C38.6666667,31 39,31.3333333 39,32 C39,32.6666667 38.6666667,33 38,33 L26,33 C25.3333333,33 25,32.6666667 25,32 C25,31.3333333 25.3333333,31 26,31 Z" id="Rectangle-9"></path>
                <path d="M26,41 L48,41 C48.6666667,41 49,41.3333333 49,42 C49,42.6666667 48.6666667,43 48,43 L26,43 C25.3333333,43 25,42.6666667 25,42 C25,41.3333333 25.3333333,41 26,41 Z" id="Rectangle-9-Copy"></path>
                <path d="M26,51 L48,51 C48.6666667,51 49,51.3333333 49,52 C49,52.6666667 48.6666667,53 48,53 L26,53 C25.3333333,53 25,52.6666667 25,52 C25,51.3333333 25.3333333,51 26,51 Z" id="Rectangle-9-Copy-2"></path>
            </g>
        </g>
    </g>
</svg>