<?xml version="1.0" encoding="UTF-8"?>
<svg width="72px" height="72px" viewBox="0 0 72 72" version="1.1" xmlns="http://www.w3.org/2000/svg" xmlns:xlink="http://www.w3.org/1999/xlink">
    <!-- Generator: Sketch 44.1 (41455) - http://www.bohemiancoding.com/sketch -->
    <title>Rectangle 6</title>
    <desc>Created with Sketch.</desc>
    <defs></defs>
    <g id="Page-1" stroke="none" stroke-width="1" fill="none" fill-rule="evenodd">
        <g id="Desktop" transform="translate(-621.000000, -437.000000)">
            <g id="Group" transform="translate(621.000000, 437.000000)" fill-rule="nonzero" fill="#333333">
                <path d="M9.45079178,15.8358196 C9.42020398,15.8156799 9.39078749,15.7939064 9.3626665,15.7706231 L9.29441305,15.7201281 L9.29943964,15.7135935 C9.11463203,15.5321404 9,15.2794571 9,15 C9,14.4477153 9.44771525,14 10,14 L62,14 C63.1045695,14 64,14.8954305 64,16 L64,56 C64,57.1045695 63.1045695,58 62,58 L10,58 C8.8954305,58 8,57.1045695 8,56 L8,21.0036861 C8,20.4514013 8.44771525,20.0036861 9,20.0036861 C9.55228475,20.0036861 10,20.4514013 10,21.0036861 L10,56 L62,56 L62,16.9380082 L37.2162135,34.5728277 C36.49731,35.1258304 35.496274,35.1258304 34.7773705,34.5728277 L9.450792,15.8358197 Z M59.8709547,16 L13.0348937,16 L35.996792,32.9875797 L59.8709547,16 Z" id="Combined-Shape"></path>
            </g>
            <g id="Group-Copy" transform="translate(657.000000, 437.000000)"></g>
        </g>
    </g>
</svg>